{
  "asset": {
    "version": "2.0",
    "generator": "FlowEngine gen_models.py"
  },
  "scene": 0,
  "scenes": [
    {
      "nodes": [
        0,
        1,
        2,
        3
      ]
    }
  ],
  "nodes": [
    {
      "mesh": 0,
      "name": "torso"
    },
    {
      "mesh": 1,
      "name": "head"
    },
    {
      "mesh": 2,
      "name": "leg_L"
    },
    {
      "mesh": 3,
      "name": "leg_R"
    }
  ],
  "meshes": [
    {
      "primitives": [
        {
          "attributes": {
            "POSITION": 0,
            "NORMAL": 1
          },
          "indices": 2,
          "material": 0
        }
      ],
      "name": "torso"
    },
    {
      "primitives": [
        {
          "attributes": {
            "POSITION": 3,
            "NORMAL": 4
          },
          "indices": 5,
          "material": 1
        }
      ],
      "name": "head"
    },
    {
      "primitives": [
        {
          "attributes": {
            "POSITION": 6,
            "NORMAL": 7
          },
          "indices": 8,
          "material": 0
        }
      ],
      "name": "leg_L"
    },
    {
      "primitives": [
        {
          "attributes": {
            "POSITION": 9,
            "NORMAL": 10
          },
          "indices": 11,
          "material": 0
        }
      ],
      "name": "leg_R"
    }
  ],
  "accessors": [
    {
      "bufferView": 0,
      "componentType": 5126,
      "count": 24,
      "type": "VEC3",
      "min": [
        -0.15000000596046448,
        0.30000001192092896,
        -0.25
      ],
      "max": [
        0.15000000596046448,
        0.8999999761581421,
        0.25
      ]
    },
    {
      "bufferView": 0,
      "componentType": 5126,
      "count": 24,
      "type": "VEC3",
      "byteOffset": 12,
      "min": [
        -1.0,
        -1.0,
        -1.0
      ],
      "max": [
        1.0,
        1.0,
        1.0
      ]
    },
    {
      "bufferView": 1,
      "componentType": 5123,
      "count": 36,
      "type": "SCALAR"
    },
    {
      "bufferView": 2,
      "componentType": 5126,
      "count": 24,
      "type": "VEC3",
      "min": [
        -0.14000000059604645,
        0.9599999785423279,
        -0.14000000059604645
      ],
      "max": [
        0.14000000059604645,
        1.2400000095367432,
        0.14000000059604645
      ]
    },
    {
      "bufferView": 2,
      "componentType": 5126,
      "count": 24,
      "type": "VEC3",
      "byteOffset": 12,
      "min": [
        -1.0,
        -1.0,
        -1.0
      ],
      "max": [
        1.0,
        1.0,
        1.0
      ]
    },
    {
      "bufferView": 3,
      "componentType": 5123,
      "count": 36,
      "type": "SCALAR"
    },
    {
      "bufferView": 4,
      "componentType": 5126,
      "count": 24,
      "type": "VEC3",
      "min": [
        -0.18000000715255737,
        0.0,
        -0.07000000029802322
      ],
      "max": [
        -0.05999999865889549,
        0.4000000059604645,
        0.07000000029802322
      ]
    },
    {
      "bufferView": 4,
      "componentType": 5126,
      "count": 24,
      "type": "VEC3",
      "byteOffset": 12,
      "min": [
        -1.0,
        -1.0,
        -1.0
      ],
      "max": [
        1.0,
        1.0,
        1.0
      ]
    },
    {
      "bufferView": 5,
      "componentType": 5123,
      "count": 36,
      "type": "SCALAR"
    },
    {
      "bufferView": 6,
      "componentType": 5126,
      "count": 24,
      "type": "VEC3",
      "min": [
        0.05999999865889549,
        0.0,
        -0.07000000029802322
      ],
      "max": [
        0.18000000715255737,
        0.4000000059604645,
        0.07000000029802322
      ]
    },
    {
      "bufferView": 6,
      "componentType": 5126,
      "count": 24,
      "type": "VEC3",
      "byteOffset": 12,
      "min": [
        -1.0,
        -1.0,
        -1.0
      ],
      "max": [
        1.0,
        1.0,
        1.0
      ]
    },
    {
      "bufferView": 7,
      "componentType": 5123,
      "count": 36,
      "type": "SCALAR"
    }
  ],
  "bufferViews": [
    {
      "buffer": 0,
      "byteOffset": 0,
      "byteLength": 576,
      "byteStride": 24
    },
    {
      "buffer": 0,
      "byteOffset": 576,
      "byteLength": 72
    },
    {
      "buffer": 0,
      "byteOffset": 648,
      "byteLength": 576,
      "byteStride": 24
    },
    {
      "buffer": 0,
      "byteOffset": 1224,
      "byteLength": 72
    },
    {
      "buffer": 0,
      "byteOffset": 1296,
      "byteLength": 576,
      "byteStride": 24
    },
    {
      "buffer": 0,
      "byteOffset": 1872,
      "byteLength": 72
    },
    {
      "buffer": 0,
      "byteOffset": 1944,
      "byteLength": 576,
      "byteStride": 24
    },
    {
      "buffer": 0,
      "byteOffset": 2520,
      "byteLength": 72
    }
  ],
  "buffers": [
    {
      "byteLength": 2592,
      "uri": "data:application/octet-stream;base64,"
    }
  ],
  "materials": [
    {
      "pbrMetallicRoughness": {
        "baseColorFactor": [
          0.6,
          0.5,
          0.4,
          1.0
        ],
        "metallicFactor": 0.0,
        "roughnessFactor": 0.8
      }
    },
    {
      "pbrMetallicRoughness": {
        "baseColorFactor": [
          0.9,
          0.8,
          0.7,
          1.0
        ],
        "metallicFactor": 0.0,
        "roughnessFactor": 0.6
      }
    }
  ]
}