{
  "asset": {
    "version": "2.0",
    "generator": "FlowEngine gen_models.py"
  },
  "scene": 0,
  "scenes": [
    {
      "nodes": [
        0,
        1,
        2,
        3,
        4,
        5,
        6,
        7,
        8,
        9,
        10,
        11,
        12,
        13,
        14
      ]
    }
  ],
  "nodes": [
    {
      "mesh": 0,
      "name": "cab"
    },
    {
      "mesh": 1,
      "name": "cargo"
    },
    {
      "mesh": 2,
      "name": "windshield"
    },
    {
      "mesh": 3,
      "name": "headlight_L"
    },
    {
      "mesh": 4,
      "name": "headlight_R"
    },
    {
      "mesh": 5,
      "name": "brakelight_L"
    },
    {
      "mesh": 6,
      "name": "brakelight_R"
    },
    {
      "mesh": 7,
      "name": "turnsignal_FL"
    },
    {
      "mesh": 8,
      "name": "turnsignal_FR"
    },
    {
      "mesh": 9,
      "name": "turnsignal_RL"
    },
    {
      "mesh": 10,
      "name": "turnsignal_RR"
    },
    {
      "mesh": 11,
      "name": "wheel_FL"
    },
    {
      "mesh": 12,
      "name": "wheel_FR"
    },
    {
      "mesh": 13,
      "name": "wheel_RL"
    },
    {
      "mesh": 14,
      "name": "wheel_RR"
    }
  ],
  "meshes": [
    {
      "primitives": [
        {
          "attributes": {
            "POSITION": 0,
            "NORMAL": 1
          },
          "indices": 2,
          "material": 0
        }
      ],
      "name": "cab"
    },
    {
      "primitives": [
        {
          "attributes": {
            "POSITION": 3,
            "NORMAL": 4
          },
          "indices": 5,
          "material": 0
        }
      ],
      "name": "cargo"
    },
    {
      "primitives": [
        {
          "attributes": {
            "POSITION": 6,
            "NORMAL": 7
          },
          "indices": 8,
          "material": 1
        }
      ],
      "name": "windshield"
    },
    {
      "primitives": [
        {
          "attributes": {
            "POSITION": 9,
            "NORMAL": 10
          },
          "indices": 11,
          "material": 3
        }
      ],
      "name": "headlight_L"
    },
    {
      "primitives": [
        {
          "attributes": {
            "POSITION": 12,
            "NORMAL": 13
          },
          "indices": 14,
          "material": 3
        }
      ],
      "name": "headlight_R"
    },
    {
      "primitives": [
        {
          "attributes": {
            "POSITION": 15,
            "NORMAL": 16
          },
          "indices": 17,
          "material": 4
        }
      ],
      "name": "brakelight_L"
    },
    {
      "primitives": [
        {
          "attributes": {
            "POSITION": 18,
            "NORMAL": 19
          },
          "indices": 20,
          "material": 4
        }
      ],
      "name": "brakelight_R"
    },
    {
      "primitives": [
        {
          "attributes": {
            "POSITION": 21,
            "NORMAL": 22
          },
          "indices": 23,
          "material": 5
        }
      ],
      "name": "turnsignal_FL"
    },
    {
      "primitives": [
        {
          "attributes": {
            "POSITION": 24,
            "NORMAL": 25
          },
          "indices": 26,
          "material": 5
        }
      ],
      "name": "turnsignal_FR"
    },
    {
      "primitives": [
        {
          "attributes": {
            "POSITION": 27,
            "NORMAL": 28
          },
          "indices": 29,
          "material": 5
        }
      ],
      "name": "turnsignal_RL"
    },
    {
      "primitives": [
        {
          "attributes": {
            "POSITION": 30,
            "NORMAL": 31
          },
          "indices": 32,
          "material": 5
        }
      ],
      "name": "turnsignal_RR"
    },
    {
      "primitives": [
        {
          "attributes": {
            "POSITION": 33,
            "NORMAL": 34
          },
          "indices": 35,
          "material": 2
        }
      ],
      "name": "wheel_FL"
    },
    {
      "primitives": [
        {
          "attributes": {
            "POSITION": 36,
            "NORMAL": 37
          },
          "indices": 38,
          "material": 2
        }
      ],
      "name": "wheel_FR"
    },
    {
      "primitives": [
        {
          "attributes": {
            "POSITION": 39,
            "NORMAL": 40
          },
          "indices": 41,
          "material": 2
        }
      ],
      "name": "wheel_RL"
    },
    {
      "primitives": [
        {
          "attributes": {
            "POSITION": 42,
            "NORMAL": 43
          },
          "indices": 44,
          "material": 2
        }
      ],
      "name": "wheel_RR"
    }
  ],
  "accessors": [
    {
      "bufferView": 0,
      "componentType": 5126,
      "count": 24,
      "type": "VEC3",
      "min": [
        0.0,
        0.10000000149011612,
        -1.2000000476837158
      ],
      "max": [
        2.0,
        1.0,
        1.2000000476837158
      ]
    },
    {
      "bufferView": 0,
      "componentType": 5126,
      "count": 24,
      "type": "VEC3",
      "byteOffset": 12,
      "min": [
        -1.0,
        -1.0,
        -1.0
      ],
      "max": [
        1.0,
        1.0,
        1.0
      ]
    },
    {
      "bufferView": 1,
      "componentType": 5123,
      "count": 36,
      "type": "SCALAR"
    },
    {
      "bufferView": 2,
      "componentType": 5126,
      "count": 24,
      "type": "VEC3",
      "min": [
        -5.0,
        0.20000000298023224,
        -1.25
      ],
      "max": [
        0.0,
        2.200000047683716,
        1.25
      ]
    },
    {
      "bufferView": 2,
      "componentType": 5126,
      "count": 24,
      "type": "VEC3",
      "byteOffset": 12,
      "min": [
        -1.0,
        -1.0,
        -1.0
      ],
      "max": [
        1.0,
        1.0,
        1.0
      ]
    },
    {
      "bufferView": 3,
      "componentType": 5123,
      "count": 36,
      "type": "SCALAR"
    },
    {
      "bufferView": 4,
      "componentType": 5126,
      "count": 24,
      "type": "VEC3",
      "min": [
        0.46000000834465027,
        0.6499999761581421,
        -0.800000011920929
      ],
      "max": [
        0.5400000214576721,
        1.25,
        0.800000011920929
      ]
    },
    {
      "bufferView": 4,
      "componentType": 5126,
      "count": 24,
      "type": "VEC3",
      "byteOffset": 12,
      "min": [
        -1.0,
        -1.0,
        -1.0
      ],
      "max": [
        1.0,
        1.0,
        1.0
      ]
    },
    {
      "bufferView": 5,
      "componentType": 5123,
      "count": 36,
      "type": "SCALAR"
    },
    {
      "bufferView": 6,
      "componentType": 5126,
      "count": 24,
      "type": "VEC3",
      "min": [
        1.899999976158142,
        0.46000000834465027,
        0.5
      ],
      "max": [
        2.0,
        0.6399999856948853,
        0.8999999761581421
      ]
    },
    {
      "bufferView": 6,
      "componentType": 5126,
      "count": 24,
      "type": "VEC3",
      "byteOffset": 12,
      "min": [
        -1.0,
        -1.0,
        -1.0
      ],
      "max": [
        1.0,
        1.0,
        1.0
      ]
    },
    {
      "bufferView": 7,
      "componentType": 5123,
      "count": 36,
      "type": "SCALAR"
    },
    {
      "bufferView": 8,
      "componentType": 5126,
      "count": 24,
      "type": "VEC3",
      "min": [
        1.899999976158142,
        0.46000000834465027,
        -0.8999999761581421
      ],
      "max": [
        2.0,
        0.6399999856948853,
        -0.5
      ]
    },
    {
      "bufferView": 8,
      "componentType": 5126,
      "count": 24,
      "type": "VEC3",
      "byteOffset": 12,
      "min": [
        -1.0,
        -1.0,
        -1.0
      ],
      "max": [
        1.0,
        1.0,
        1.0
      ]
    },
    {
      "bufferView": 9,
      "componentType": 5123,
      "count": 36,
      "type": "SCALAR"
    },
    {
      "bufferView": 10,
      "componentType": 5126,
      "count": 24,
      "type": "VEC3",
      "min": [
        -5.0,
        0.8100000023841858,
        0.5
      ],
      "max": [
        -4.900000095367432,
        0.9900000095367432,
        0.8999999761581421
      ]
    },
    {
      "bufferView": 10,
      "componentType": 5126,
      "count": 24,
      "type": "VEC3",
      "byteOffset": 12,
      "min": [
        -1.0,
        -1.0,
        -1.0
      ],
      "max": [
        1.0,
        1.0,
        1.0
      ]
    },
    {
      "bufferView": 11,
      "componentType": 5123,
      "count": 36,
      "type": "SCALAR"
    },
    {
      "bufferView": 12,
      "componentType": 5126,
      "count": 24,
      "type": "VEC3",
      "min": [
        -5.0,
        0.8100000023841858,
        -0.8999999761581421
      ],
      "max": [
        -4.900000095367432,
        0.9900000095367432,
        -0.5
      ]
    },
    {
      "bufferView": 12,
      "componentType": 5126,
      "count": 24,
      "type": "VEC3",
      "byteOffset": 12,
      "min": [
        -1.0,
        -1.0,
        -1.0
      ],
      "max": [
        1.0,
        1.0,
        1.0
      ]
    },
    {
      "bufferView": 13,
      "componentType": 5123,
      "count": 36,
      "type": "SCALAR"
    },
    {
      "bufferView": 14,
      "componentType": 5126,
      "count": 24,
      "type": "VEC3",
      "min": [
        1.909999966621399,
        0.47999998927116394,
        0.8999999761581421
      ],
      "max": [
        1.9900000095367432,
        0.6200000047683716,
        1.0
      ]
    },
    {
      "bufferView": 14,
      "componentType": 5126,
      "count": 24,
      "type": "VEC3",
      "byteOffset": 12,
      "min": [
        -1.0,
        -1.0,
        -1.0
      ],
      "max": [
        1.0,
        1.0,
        1.0
      ]
    },
    {
      "bufferView": 15,
      "componentType": 5123,
      "count": 36,
      "type": "SCALAR"
    },
    {
      "bufferView": 16,
      "componentType": 5126,
      "count": 24,
      "type": "VEC3",
      "min": [
        1.909999966621399,
        0.47999998927116394,
        -1.0
      ],
      "max": [
        1.9900000095367432,
        0.6200000047683716,
        -0.8999999761581421
      ]
    },
    {
      "bufferView": 16,
      "componentType": 5126,
      "count": 24,
      "type": "VEC3",
      "byteOffset": 12,
      "min": [
        -1.0,
        -1.0,
        -1.0
      ],
      "max": [
        1.0,
        1.0,
        1.0
      ]
    },
    {
      "bufferView": 17,
      "componentType": 5123,
      "count": 36,
      "type": "SCALAR"
    },
    {
      "bufferView": 18,
      "componentType": 5126,
      "count": 24,
      "type": "VEC3",
      "min": [
        -4.989999771118164,
        0.8299999833106995,
        0.8999999761581421
      ],
      "max": [
        -4.909999847412109,
        0.9700000286102295,
        1.0
      ]
    },
    {
      "bufferView": 18,
      "componentType": 5126,
      "count": 24,
      "type": "VEC3",
      "byteOffset": 12,
      "min": [
        -1.0,
        -1.0,
        -1.0
      ],
      "max": [
        1.0,
        1.0,
        1.0
      ]
    },
    {
      "bufferView": 19,
      "componentType": 5123,
      "count": 36,
      "type": "SCALAR"
    },
    {
      "bufferView": 20,
      "componentType": 5126,
      "count": 24,
      "type": "VEC3",
      "min": [
        -4.989999771118164,
        0.8299999833106995,
        -1.0
      ],
      "max": [
        -4.909999847412109,
        0.9700000286102295,
        -0.8999999761581421
      ]
    },
    {
      "bufferView": 20,
      "componentType": 5126,
      "count": 24,
      "type": "VEC3",
      "byteOffset": 12,
      "min": [
        -1.0,
        -1.0,
        -1.0
      ],
      "max": [
        1.0,
        1.0,
        1.0
      ]
    },
    {
      "bufferView": 21,
      "componentType": 5123,
      "count": 36,
      "type": "SCALAR"
    },
    {
      "bufferView": 22,
      "componentType": 5126,
      "count": 30,
      "type": "VEC3",
      "min": [
        1.0,
        0.012536044232547283,
        0.8999999761581421
      ],
      "max": [
        2.0,
        0.9874639511108398,
        1.2999999523162842
      ]
    },
    {
      "bufferView": 22,
      "componentType": 5126,
      "count": 30,
      "type": "VEC3",
      "byteOffset": 12,
      "min": [
        -1.0,
        -0.9749279022216797,
        -1.0
      ],
      "max": [
        1.0,
        0.9749279022216797,
        1.0
      ]
    },
    {
      "bufferView": 23,
      "componentType": 5123,
      "count": 168,
      "type": "SCALAR"
    },
    {
      "bufferView": 24,
      "componentType": 5126,
      "count": 30,
      "type": "VEC3",
      "min": [
        1.0,
        0.012536044232547283,
        -1.2999999523162842
      ],
      "max": [
        2.0,
        0.9874639511108398,
        -0.8999999761581421
      ]
    },
    {
      "bufferView": 24,
      "componentType": 5126,
      "count": 30,
      "type": "VEC3",
      "byteOffset": 12,
      "min": [
        -1.0,
        -0.9749279022216797,
        -1.0
      ],
      "max": [
        1.0,
        0.9749279022216797,
        1.0
      ]
    },
    {
      "bufferView": 25,
      "componentType": 5123,
      "count": 168,
      "type": "SCALAR"
    },
    {
      "bufferView": 26,
      "componentType": 5126,
      "count": 30,
      "type": "VEC3",
      "min": [
        -2.0,
        0.012536044232547283,
        0.8999999761581421
      ],
      "max": [
        -1.0,
        0.9874639511108398,
        1.2999999523162842
      ]
    },
    {
      "bufferView": 26,
      "componentType": 5126,
      "count": 30,
      "type": "VEC3",
      "byteOffset": 12,
      "min": [
        -1.0,
        -0.9749279022216797,
        -1.0
      ],
      "max": [
        1.0,
        0.9749279022216797,
        1.0
      ]
    },
    {
      "bufferView": 27,
      "componentType": 5123,
      "count": 168,
      "type": "SCALAR"
    },
    {
      "bufferView": 28,
      "componentType": 5126,
      "count": 30,
      "type": "VEC3",
      "min": [
        -2.0,
        0.012536044232547283,
        -1.2999999523162842
      ],
      "max": [
        -1.0,
        0.9874639511108398,
        -0.8999999761581421
      ]
    },
    {
      "bufferView": 28,
      "componentType": 5126,
      "count": 30,
      "type": "VEC3",
      "byteOffset": 12,
      "min": [
        -1.0,
        -0.9749279022216797,
        -1.0
      ],
      "max": [
        1.0,
        0.9749279022216797,
        1.0
      ]
    },
    {
      "bufferView": 29,
      "componentType": 5123,
      "count": 168,
      "type": "SCALAR"
    }
  ],
  "bufferViews": [
    {
      "buffer": 0,
      "byteOffset": 0,
      "byteLength": 576,
      "byteStride": 24
    },
    {
      "buffer": 0,
      "byteOffset": 576,
      "byteLength": 72
    },
    {
      "buffer": 0,
      "byteOffset": 648,
      "byteLength": 576,
      "byteStride": 24
    },
    {
      "buffer": 0,
      "byteOffset": 1224,
      "byteLength": 72
    },
    {
      "buffer": 0,
      "byteOffset": 1296,
      "byteLength": 576,
      "byteStride": 24
    },
    {
      "buffer": 0,
      "byteOffset": 1872,
      "byteLength": 72
    },
    {
      "buffer": 0,
      "byteOffset": 1944,
      "byteLength": 576,
      "byteStride": 24
    },
    {
      "buffer": 0,
      "byteOffset": 2520,
      "byteLength": 72
    },
    {
      "buffer": 0,
      "byteOffset": 2592,
      "byteLength": 576,
      "byteStride": 24
    },
    {
      "buffer": 0,
      "byteOffset": 3168,
      "byteLength": 72
    },
    {
      "buffer": 0,
      "byteOffset": 3240,
      "byteLength": 576,
      "byteStride": 24
    },
    {
      "buffer": 0,
      "byteOffset": 3816,
      "byteLength": 72
    },
    {
      "buffer": 0,
      "byteOffset": 3888,
      "byteLength": 576,
      "byteStride": 24
    },
    {
      "buffer": 0,
      "byteOffset": 4464,
      "byteLength": 72
    },
    {
      "buffer": 0,
      "byteOffset": 4536,
      "byteLength": 576,
      "byteStride": 24
    },
    {
      "buffer": 0,
      "byteOffset": 5112,
      "byteLength": 72
    },
    {
      "buffer": 0,
      "byteOffset": 5184,
      "byteLength": 576,
      "byteStride": 24
    },
    {
      "buffer": 0,
      "byteOffset": 5760,
      "byteLength": 72
    },
    {
      "buffer": 0,
      "byteOffset": 5832,
      "byteLength": 576,
      "byteStride": 24
    },
    {
      "buffer": 0,
      "byteOffset": 6408,
      "byteLength": 72
    },
    {
      "buffer": 0,
      "byteOffset": 6480,
      "byteLength": 576,
      "byteStride": 24
    },
    {
      "buffer": 0,
      "byteOffset": 7056,
      "byteLength": 72
    },
    {
      "buffer": 0,
      "byteOffset": 7128,
      "byteLength": 720,
      "byteStride": 24
    },
    {
      "buffer": 0,
      "byteOffset": 7848,
      "byteLength": 336
    },
    {
      "buffer": 0,
      "byteOffset": 8184,
      "byteLength": 720,
      "byteStride": 24
    },
    {
      "buffer": 0,
      "byteOffset": 8904,
      "byteLength": 336
    },
    {
      "buffer": 0,
      "byteOffset": 9240,
      "byteLength": 720,
      "byteStride": 24
    },
    {
      "buffer": 0,
      "byteOffset": 9960,
      "byteLength": 336
    },
    {
      "buffer": 0,
      "byteOffset": 10296,
      "byteLength": 720,
      "byteStride": 24
    },
    {
      "buffer": 0,
      "byteOffset": 11016,
      "byteLength": 336
    }
  ],
  "buffers": [
    {
      "byteLength": 11352,
      "uri": "data:application/octet-stream;base64,"
    }
  ],
  "materials": [
    {
      "pbrMetallicRoughness": {
        "baseColorFactor": [
          0.85,
          0.2,
          0.15,
          1.0
        ],
        "metallicFactor": 0.6,
        "roughnessFactor": 0.5
      }
    },
    {
      "pbrMetallicRoughness": {
        "baseColorFactor": [
          0.7,
          0.8,
          0.95,
          0.5
        ],
        "metallicFactor": 0.1,
        "roughnessFactor": 0.05
      },
      "alphaMode": "BLEND",
      "doubleSided": true
    },
    {
      "pbrMetallicRoughness": {
        "baseColorFactor": [
          0.08,
          0.08,
          0.08,
          1.0
        ],
        "metallicFactor": 0.0,
        "roughnessFactor": 0.95
      }
    },
    {
      "pbrMetallicRoughness": {
        "baseColorFactor": [
          0.85,
          0.85,
          0.8,
          1.0
        ],
        "metallicFactor": 0.2,
        "roughnessFactor": 0.2
      },
      "emissiveFactor": [
        0.5,
        0.5,
        0.45
      ]
    },
    {
      "pbrMetallicRoughness": {
        "baseColorFactor": [
          0.5,
          0.05,
          0.05,
          1.0
        ],
        "metallicFactor": 0.1,
        "roughnessFactor": 0.35
      },
      "emissiveFactor": [
        0.12,
        0.0,
        0.0
      ]
    },
    {
      "pbrMetallicRoughness": {
        "baseColorFactor": [
          0.75,
          0.45,
          0.05,
          1.0
        ],
        "metallicFactor": 0.1,
        "roughnessFactor": 0.35
      },
      "emissiveFactor": [
        0.1,
        0.06,
        0.0
      ]
    }
  ]
}